<?xml version="1.0" encoding="UTF-8"?>
<svg width="20px" height="20px" viewBox="0 0 20 20" version="1.1" xmlns="http://www.w3.org/2000/svg" xmlns:xlink="http://www.w3.org/1999/xlink">
    <title>icon-skype</title>
    <desc>Created with Sketch.</desc>
    <defs>
        <polygon id="path-1" points="0 0 20 0 20 19.9967123 0 19.9967123"></polygon>
    </defs>
    <g id="Personal-profile" stroke="none" stroke-width="1" fill="none" fill-rule="evenodd">
        <g id="001-basic:-messengers" transform="translate(-80.000000, -619.000000)">
            <g id="icon-skype" transform="translate(80.000000, 619.000000)">
                <g id="Group-3">
                    <mask id="mask-2" fill="white">
                        <use xlink:href="#path-1"></use>
                    </mask>
                    <g id="Clip-2"></g>
                    <path d="M4.09331507,0 L15.9066849,0 C18.1579726,0 20,1.8420274 20,4.09331507 L20,15.9066849 C20,18.1579726 18.1579726,20 15.9066849,20 L4.09331507,20 C1.8419726,20.0000548 0,18.1580274 0,15.9066849 L0,4.09331507 C0,1.8420274 1.8419726,0 4.09331507,0" id="Fill-1" fill="#00AFF0" mask="url(#mask-2)"></path>
                    <path d="M16.5044738,11.1686854 C16.5000396,11.1933548 16.4969356,11.2182465 16.4922797,11.2429158 L16.4683348,11.1015668 C16.4814158,11.1235693 16.4922797,11.1464607 16.5044738,11.1686854 C16.5767519,10.7744194 16.6146647,10.3708189 16.6146647,9.9674408 C16.6146647,9.07289698 16.4399556,8.20502277 16.0947502,7.38804311 C15.7617388,6.59884431 15.2852799,5.89009889 14.6777892,5.28158684 C14.0711853,4.67307478 13.3637026,4.19546616 12.5768469,3.86165129 C11.7620556,3.51605734 10.8962705,3.34092677 10.00388,3.34092677 C9.58329241,3.34092677 9.16203973,3.38048672 8.75209436,3.45938438 C8.75120755,3.45960662 8.75009898,3.45960662 8.74899041,3.45982887 C8.77204846,3.47205245 8.79532822,3.48294255 8.81794281,3.49561062 L8.67892943,3.47383042 C8.70220919,3.46938549 8.72571065,3.46449605 8.74899041,3.45982887 C8.18650724,3.16001778 7.5539631,3 6.91365904,3 C5.86828727,3 4.88543827,3.40804534 4.14625069,4.1492388 C3.40728482,4.89021002 3,5.8754306 3,6.92332481 C3,7.5902878 3.17116161,8.2459162 3.4924222,8.82531389 C3.49663473,8.80131124 3.49951698,8.77708636 3.50417294,8.75308366 L3.52811782,8.891988 C3.51570196,8.87020779 3.50483807,8.84753863 3.4924222,8.82531389 C3.42723889,9.20068898 3.39287354,9.58428716 3.39287354,9.9674408 C3.39287354,10.8622069 3.56758255,11.7298588 3.91278803,12.5470608 C4.24535593,13.3364818 4.72203658,14.0447827 5.32886215,14.6532948 C5.93635284,15.2618069 6.64294877,15.7400822 7.43069127,16.0730081 C8.24548262,16.4192688 9.11148945,16.5946216 10.00388,16.5946216 C10.3923193,16.5946216 10.7816454,16.5590621 11.1616597,16.491499 C11.1394885,16.4790532 11.1168738,16.4677186 11.0942592,16.454606 L11.2354897,16.4794977 C11.2111014,16.4841649 11.1864914,16.4870541 11.1616597,16.491499 C11.7472009,16.8235359 12.4101196,17 13.0870061,17 C14.1321562,17 15.1145617,16.5926214 15.8537493,15.8512057 C16.5931586,15.1106789 17,14.1252361 17,13.0773419 C17,12.4081564 16.8279515,11.7503056 16.5044738,11.1686854 L16.5044738,11.1686854 L16.5044738,11.1686854 Z M10.0302637,14.0258917 C7.68166917,14.0258917 6.63097632,12.8684298 6.63097632,12.0010001 C6.63097632,11.5560617 6.95866656,11.2442493 7.41029377,11.2442493 C8.41531396,11.2442493 8.15502415,12.6908545 10.0302637,12.6908545 C10.9902763,12.6908545 11.5203896,12.168352 11.5203896,11.633626 C11.5203896,11.3120347 11.3620872,10.9555506 10.7299865,10.799311 L8.64101672,10.2765863 C6.95866656,9.85365041 6.65336923,8.94199354 6.65336923,8.08500944 C6.65336923,6.30570063 8.32463378,5.6376264 9.89413255,5.6376264 C11.339916,5.6376264 13.0442157,6.43860428 13.0442157,7.50605622 C13.0442157,7.96344037 12.649125,8.22946993 12.1977195,8.22946993 C11.339916,8.22946993 11.497775,7.0393377 9.76997387,7.0393377 C8.91261382,7.0393377 8.43770686,7.42849204 8.43770686,7.98544282 C8.43770686,8.54128237 9.11481511,8.71885762 9.70279515,8.8530948 L11.2490142,9.19713301 C12.9426716,9.57539725 13.3721277,10.5666185 13.3721277,11.5002778 C13.3721277,12.9462162 12.2648982,14.0258917 10.0302637,14.0258917 L10.0302637,14.0258917 Z M11.0942593,16.454606 C11.1168738,16.4785256 11.1394885,16.4992018 11.1616597,16.5219051 C11.1864914,16.5137968 11.2111014,16.5085264 11.2354897,16.5000126 L11.0942593,16.454606 L11.0942593,16.454606 Z M16.5121197,11.2429158 C16.5206335,11.2182465 16.5263093,11.1933548 16.5344176,11.1686854 C16.5121197,11.1464607 16.4922543,11.1235693 16.4683348,11.1015668 L16.5121197,11.2429158 L16.5121197,11.2429158 Z M3.51390926,8.75308366 C3.50539552,8.77708636 3.50012511,8.80131124 3.4924222,8.82531389 C3.5151255,8.84753863 3.53499089,8.87020779 3.5576942,8.891988 L3.51390926,8.75308366 L3.51390926,8.75308366 Z M8.81794281,3.52510086 C8.79532822,3.50199214 8.77204846,3.48212676 8.74899041,3.45982887 C8.72571065,3.46834261 8.70220919,3.47726176 8.67892943,3.48537008 L8.81794281,3.52510086 L8.81794281,3.52510086 Z" id="Shape" fill="#FFFFFF" mask="url(#mask-2)"></path>
                </g>
            </g>
        </g>
    </g>
</svg>