<?xml version="1.0" encoding="UTF-8"?>
<svg width="20px" height="20px" viewBox="0 0 20 20" version="1.1" xmlns="http://www.w3.org/2000/svg" xmlns:xlink="http://www.w3.org/1999/xlink">
    <title>icon-telegram</title>
    <desc>Created with Sketch.</desc>
    <defs></defs>
    <g id="EN-cards" stroke="none" stroke-width="1" fill="none" fill-rule="evenodd">
        <g id="001-basic:-messengers" transform="translate(-80.000000, -170.000000)">
            <g id="icon-telegram" transform="translate(80.000000, 170.000000)">
                <rect id="Rectangle-3" fill="#1F98D4" x="0" y="0" width="20" height="20" rx="4"></rect>
                <g id="Group-9" transform="translate(4.000000, 5.000000)" fill-rule="nonzero">
                    <g id="Group-24" transform="translate(0.375000, 0.000000)">
                        <g id="Group">
                            <path d="M10.8395274,9.22026789 L9.12603767,0.408211492 C9.12603767,0.408211492 8.88637845,-0.202901191 8.22736053,0.0904270297 L4.27318108,3.18261979 L2.83529764,3.8914841 L0.414872508,4.72259295 C0.414872508,4.72259295 0.0434312692,4.85701061 0.00748418328,5.15033883 C-0.0284629026,5.44366705 0.426842887,5.60257761 0.426842887,5.60257761 L10.0486915,9.45251051 C10.0486915,9.45251051 10.8395274,9.80692433 10.8395274,9.22026789" id="path42" fill="#FFFFFF" transform="translate(5.422495, 4.784688) scale(-1, 1) rotate(-180.000000) translate(-5.422495, -4.784688) "></path>
                            <path d="M3.96924487,1.82117878 C3.96924487,1.82117878 3.85381878,1.83221525 3.71003044,2.29670049 C3.56624209,2.76111239 2.83529405,5.20548979 2.83529405,5.20548979 L8.64675158,8.96988084 C8.64675158,8.96988084 8.98224573,9.17763055 8.97027535,8.96988084 C8.97027535,8.96988084 9.03019915,8.93321481 8.85046372,8.76209446 C8.67072829,8.59097411 4.28518381,4.56999419 4.28518381,4.56999419" id="path46" fill="#D4E6F2" transform="translate(5.907580, 5.441696) scale(-1, 1) rotate(-180.000000) translate(-5.907580, -5.441696) "></path>
                            <path d="M5.78931413,7.86983115 L4.22525642,6.41528984 C4.22525642,6.41528984 4.10300038,6.32069149 3.96924128,6.37998045 L4.26871645,9.08175336" id="path50" fill="#B7D1E5" transform="translate(4.879278, 7.721101) scale(-1, 1) rotate(-180.000000) translate(-4.879278, -7.721101) "></path>
                        </g>
                    </g>
                </g>
            </g>
        </g>
    </g>
</svg>