<?xml version="1.0" encoding="UTF-8"?>
<svg width="20px" height="20px" viewBox="0 0 20 20" version="1.1" xmlns="http://www.w3.org/2000/svg" xmlns:xlink="http://www.w3.org/1999/xlink">
    <title>icon-whatsapp</title>
    <desc>Created with Sketch.</desc>
    <defs></defs>
    <g id="EN-cards" stroke="none" stroke-width="1" fill="none" fill-rule="evenodd">
        <g id="001-basic:-messengers" transform="translate(-80.000000, -80.000000)">
            <g id="icon-whatsapp" transform="translate(80.000000, 80.000000)">
                <rect id="Rectangle-3" fill="#24D366" x="0" y="0" width="20" height="20" rx="4"></rect>
                <g id="Group-4" transform="translate(4.000000, 4.000000)">
                    <path d="M5.9539421,1 C3.21794323,1 1,3.21666487 1,5.9510868 C1,7.55244659 1.96543426,8.88821391 1.96543426,8.88821391 L1.36102668,10.6905445 L3.22373734,10.0831003 C3.22373734,10.0831003 4.43756288,10.9022016 5.9539421,10.9022016 C8.68994097,10.9022016 10.9079402,8.68550873 10.9079402,5.9510868 C10.9079402,3.21666487 8.68994097,1 5.9539421,1" id="Fill-3"></path>
                    <path d="M5.96620617,10.8264217 C4.44607298,10.8264217 3.22924247,10.0135889 3.22924247,10.0135889 L1.36192044,10.6163844 L1.96782431,8.82784674 C1.96782431,8.82784674 1,7.50230182 1,5.91319697 C1,3.19970111 3.22343401,1 5.96620617,1 C8.70897833,1 10.9324685,3.19970111 10.9324685,5.91319697 C10.9324685,8.62669282 8.70897833,10.8264217 5.96620617,10.8264217 L5.96620617,10.8264217 Z M6.08780036,0 C2.82260343,0 0.175656842,2.61872088 0.175656842,5.84906516 C0.175656842,7.4523002 1.03359741,8.88533449 1.03359741,8.88533449 L0,12 L3.23949379,10.9757973 C3.23949379,10.9757973 4.44212584,11.6981303 6.08780036,11.6981303 C9.35302536,11.6981303 12,9.07940944 12,5.84906516 C12,2.61872088 9.35302536,0 6.08780036,0 L6.08780036,0 Z" id="Fill-5" fill="#FFFFFE"></path>
                    <path d="M3.77869558,3.30093297 C3.77869558,3.30093297 3.93804779,3.2 4.0211248,3.2 L4.48571782,3.2 C4.48571782,3.2 4.61030533,3.22168045 4.66751874,3.35142743 C4.72476013,3.48114644 5.11646484,4.40098488 5.14560337,4.47195687 C5.1747419,4.54290089 5.2507652,4.71847055 5.12878084,4.87571673 C5.00679648,5.03299089 4.75168738,5.32661409 4.75168738,5.32661409 C4.75168738,5.32661409 4.6506962,5.41750412 4.73822376,5.56218963 C4.82575131,5.70684717 5.13359527,6.1841527 5.53621643,6.5447475 C5.9388096,6.90534229 6.43184138,7.17059906 6.67757352,7.25136223 C6.92336164,7.33212539 6.97721614,7.2244505 7.07146152,7.10331974 C7.16576287,6.98218898 7.45868768,6.61205479 7.45868768,6.61205479 C7.45868768,6.61205479 7.55973484,6.46401231 7.7583303,6.55484639 C7.95700974,6.64568047 8.92322774,7.11341863 8.92322774,7.11341863 C8.92322774,7.11341863 9.04104145,7.13364439 9.04778726,7.26484607 C9.05450508,7.39607572 9.13542678,7.78875757 8.78520459,8.16658482 C8.43498241,8.54441207 7.69017245,8.71925439 7.33754305,8.62072725 C6.98485766,8.52220011 5.81892456,8.21733106 5.05849568,7.50861822 C4.2980668,6.79990538 3.68226692,6.05390217 3.43034878,5.50375033 C3.17843065,4.95359849 3.1924261,4.62721685 3.20642155,4.47335561 C3.22041701,4.31949437 3.30131072,3.60652937 3.77869558,3.30093297" id="Fill-6" fill="#FFFFFE"></path>
                </g>
            </g>
        </g>
    </g>
</svg>