<?xml version="1.0" encoding="UTF-8"?>
<svg width="20px" height="20px" viewBox="0 0 20 20" version="1.1" xmlns="http://www.w3.org/2000/svg" xmlns:xlink="http://www.w3.org/1999/xlink">
    <title>icon-vk</title>
    <desc>Created with Sketch.</desc>
    <defs></defs>
    <g id="EN-cards" stroke="none" stroke-width="1" fill="none" fill-rule="evenodd">
        <g id="001-basic:-messengers" transform="translate(-80.000000, -440.000000)">
            <g id="icon-vk" transform="translate(80.000000, 440.000000)">
                <rect id="Rectangle-3" fill="#5B88BD" x="0" y="0" width="20" height="20" rx="4"></rect>
                <path d="M13.9685734,9.93218919 C13.9685734,9.93218919 15.5497233,7.71013851 15.7068417,6.97988176 C15.7591851,6.7190946 15.6440031,6.57297296 15.3717028,6.57297296 L14.0000147,6.57297296 C13.6858661,6.57297296 13.5706842,6.70859458 13.4764484,6.90682093 C13.4764484,6.90682093 12.7348214,8.48116523 11.83246,9.47321961 C11.5427853,9.79393158 11.3955006,9.8904527 11.2356041,9.8904527 C11.1066197,9.8904527 11.0471326,9.78334369 11.0471326,9.49404392 L11.0471326,6.95901351 C11.0471326,6.60434122 11.0052402,6.5 10.7120819,6.5 L8.51312995,6.5 C8.34556051,6.5 8.24082962,6.59704832 8.24082962,6.72946282 C8.24082962,7.06348653 8.75394486,7.13891975 8.75394486,8.04394256 L8.75394486,9.91132094 C8.75394486,10.2869054 8.73299868,10.4329392 8.55497821,10.4329392 C8.08379942,10.4329392 6.96337726,8.81597974 6.33512417,6.97988176 C6.20944709,6.60434122 6.07331898,6.5 5.71727803,6.5 L4.34558991,6.5 C4.14662326,6.5 4,6.63557769 4,6.83376011 C4,7.19888849 4.42933053,8.8889527 6.11521134,11.1527838 C7.24608453,12.6758581 8.73299868,13.5 10.0732896,13.5 C10.8900583,13.5 11.0890249,13.3644223 11.0890249,13.0201182 L11.0890249,11.8517162 C11.0890249,11.5596047 11.2042069,11.4344392 11.3717322,11.4344392 C11.5602037,11.4344392 11.8928732,11.4947594 12.6701748,12.2585811 C13.5916303,13.1349156 13.6544689,13.5 14.1571331,13.5 L15.6963465,13.5 C15.8534208,13.5 16,13.4269831 16,13.166196 C16,12.8218919 15.5497233,12.2064324 14.8586317,11.4761317 C14.5759244,11.1005912 14.1151966,10.6937703 13.9685734,10.506 C13.7591998,10.2869054 13.8219942,10.161652 13.9685734,9.93218919" id="Fill-4" fill="#FFFFFE"></path>
            </g>
        </g>
    </g>
</svg>