<?xml version="1.0" encoding="UTF-8"?>
<svg width="20px" height="20px" viewBox="0 0 20 20" version="1.1" xmlns="http://www.w3.org/2000/svg" xmlns:xlink="http://www.w3.org/1999/xlink">
    <title>icon-viber</title>
    <desc>Created with Sketch.</desc>
    <defs></defs>
    <g id="EN-cards" stroke="none" stroke-width="1" fill="none" fill-rule="evenodd">
        <g id="001-basic:-messengers" transform="translate(-80.000000, -260.000000)">
            <g id="icon-viber" transform="translate(80.000000, 260.000000)">
                <rect id="Rectangle-3" fill="#665CAC" x="0" y="0" width="20" height="20" rx="4"></rect>
                <g id="Group-3" transform="translate(4.500000, 4.000000)" fill="#FFFFFF">
                    <path d="M9.40750617,1.25334074 C9.13508642,1.00274815 8.03491358,0.203958025 5.58376543,0.193044444 C5.58376543,0.193044444 2.6931358,0.018637037 1.28423457,1.31147654 C0.499925926,2.09578519 0.223938272,3.24339012 0.194765432,4.66677284 C0.165802469,6.09015556 0.128024691,8.75705679 2.69901235,9.48050123 C2.69985185,9.48071111 2.70069136,9.48092099 2.70153086,9.48113086 L2.69985185,10.5844519 C2.69985185,10.5844519 2.68369136,11.0314889 2.97751852,11.1225753 C3.33346914,11.2329704 3.5422963,10.8933901 3.88208642,10.5273654 C4.06866667,10.3265136 4.32576543,10.0312173 4.52011111,9.8056 C6.27845679,9.95293333 7.63069136,9.61524198 7.78432099,9.56550123 C8.1394321,9.44985926 10.1483704,9.19297037 10.4751481,6.52606914 C10.812,3.77647654 10.3116543,2.03764938 9.40750617,1.25334074 M9.70532099,6.32752593 C9.42891358,8.55431605 7.8002716,8.69493333 7.49993827,8.79126667 C7.37212346,8.83240247 6.18401235,9.12790864 4.69074074,9.03031605 C4.69074074,9.03031605 3.57776543,10.3728963 3.23041975,10.7221309 C3.17606173,10.7766988 3.11225926,10.7985259 3.06965432,10.788242 C3.00983951,10.7737605 2.99325926,10.7028222 2.99409877,10.5991432 C2.99493827,10.4511802 3.00354321,8.76545185 3.00354321,8.76545185 C3.00165432,8.7650321 3.00228395,8.76524198 3.00312346,8.76545185 C0.828802469,8.16121728 0.955567901,5.89098272 0.980123457,4.70245185 C1.00467901,3.51371111 1.22798765,2.53988395 1.89161728,1.88485926 C3.0832963,0.805464198 5.5384321,0.966649383 5.5384321,0.966649383 C7.61180247,0.975883951 8.60535802,1.60005679 8.83580247,1.8093037 C9.60059259,2.4643284 9.99033333,4.03147654 9.70532099,6.32752593" id="Fill-4775"></path>
                    <path d="M6.59262099,4.74331481 C6.5191642,4.74331481 6.45809012,4.68580864 6.45431235,4.61172222 C6.43080617,4.14117901 6.20917654,3.91073457 5.75689259,3.88659877 C5.68049753,3.88240123 5.6217321,3.81712963 5.62592963,3.74073457 C5.63012716,3.66433951 5.69539877,3.60557407 5.77179383,3.6097716 C6.36868272,3.64188272 6.70049753,3.98356173 6.73113951,4.59787037 C6.73491728,4.67426543 6.67615185,4.73932716 6.59954691,4.74310494 C6.59723827,4.74331481 6.59492963,4.74331481 6.59262099,4.74331481" id="Fill-4777"></path>
                    <path d="M7.30393457,4.98173457 L7.30078642,4.98173457 C7.22418148,4.98005556 7.16352716,4.91646296 7.16541605,4.8400679 C7.17611975,4.36616667 7.04074938,3.98251235 6.75153951,3.66727778 C6.46379877,3.35246296 6.06881111,3.18099383 5.5437,3.14237654 C5.46751481,3.13670988 5.41000864,3.07038889 5.41567531,2.99399383 C5.42134198,2.91780864 5.48766296,2.86030247 5.56405802,2.86596914 C6.15465062,2.9092037 6.62309506,3.1159321 6.95616914,3.4800679 C7.29092222,3.84546296 7.45462593,4.30509259 7.44245309,4.8463642 C7.44077407,4.92170988 7.37907037,4.98173457 7.30393457,4.98173457" id="Fill-4779"></path>
                    <path d="M8.0321642,5.26653704 C7.95618889,5.26653704 7.89427531,5.20525309 7.89364568,5.1290679 C7.88713951,4.28158642 7.64305309,3.63453704 7.14753457,3.15056173 C6.65789259,2.67372222 6.03917654,2.42900617 5.3085963,2.42375926 C5.23220123,2.42333951 5.17049753,2.3607963 5.17112716,2.28419136 C5.17154691,2.20800617 5.23367037,2.14672222 5.30964568,2.14672222 L5.31069506,2.14672222 C6.11515185,2.15238889 6.7983,2.42333951 7.34104074,2.9522284 C7.88462099,3.48300617 8.16375679,4.2146358 8.17068272,5.12696914 C8.17131235,5.2033642 8.10981852,5.26590741 8.03321358,5.26653704 L8.0321642,5.26653704 Z" id="Fill-4781"></path>
                    <path d="M5.79171111,6.46128025 C5.79171111,6.46128025 5.98668642,6.47849012 6.09141481,6.34836667 L6.29604444,6.0912679 C6.39447654,5.96345309 6.6328963,5.88223086 6.86606914,6.01214444 C6.99598272,6.08539136 7.2287358,6.22936667 7.37480988,6.33682346 C7.52948889,6.45057654 7.84619259,6.71439136 7.84724198,6.71523086 C7.99835309,6.84262593 8.03319259,7.0298358 7.93035309,7.22711975 C7.93035309,7.22816914 7.92951358,7.2302679 7.92951358,7.23131728 C7.82394568,7.41789753 7.68269877,7.59251481 7.50388395,7.75558889 C7.50178519,7.7564284 7.50178519,7.75747778 7.50010617,7.75852716 C7.35340247,7.88088519 7.20921728,7.95035432 7.06776049,7.96735432 C7.05076049,7.97071235 7.02998272,7.97218148 7.00458765,7.97134198 C6.94267407,7.9719716 6.88139012,7.96273704 6.8207358,7.94300864 L6.81611852,7.93629259 C6.59805679,7.87479877 6.23413086,7.72095926 5.62779753,7.38641605 C5.23385926,7.16919383 4.9060321,6.9475642 4.62941481,6.72677407 C4.48313086,6.61155185 4.33285926,6.48037901 4.18027901,6.32863827 C4.17524198,6.32360123 4.17020494,6.3185642 4.1651679,6.31352716 C4.16013086,6.30849012 4.15509383,6.30345309 4.14984691,6.29841605 L4.14984691,6.29841605 L4.14984691,6.29820617 C4.14480988,6.29316914 4.13977284,6.2881321 4.1347358,6.28309506 C4.12969877,6.27805802 4.12466173,6.27302099 4.11962469,6.26798395 C3.96788395,6.1154037 3.83671111,5.9651321 3.72127901,5.81884815 C3.50069877,5.54223086 3.27906914,5.2144037 3.06184691,4.82046543 C2.7273037,4.2141321 2.5734642,3.85020617 2.51197037,3.63214444 L2.50525432,3.62731728 C2.48552593,3.56666296 2.47629136,3.50537901 2.47692099,3.44367531 C2.4758716,3.41807037 2.47755062,3.39750247 2.48069877,3.38050247 C2.49790864,3.23904568 2.56737778,3.09486049 2.6897358,2.94815679 C2.69078519,2.9462679 2.69183457,2.9462679 2.69267407,2.94437901 C2.85574815,2.76577407 3.03036543,2.62431728 3.21694568,2.51874938 C3.21799506,2.51874938 3.22009383,2.51790988 3.22093333,2.51790988 C3.41842716,2.41507037 3.60563704,2.44990988 3.73282222,2.60102099 C3.7338716,2.60186049 3.99768642,2.91877407 4.11143951,3.07345309 C4.2188963,3.21952716 4.3628716,3.45207037 4.43611852,3.58219383 C4.5660321,3.81536667 4.4846,4.05378642 4.35699506,4.15221852 L4.09968642,4.35663827 C3.96977284,4.46157654 3.98698272,4.65655185 3.98698272,4.65655185 C3.98698272,4.65655185 4.36748889,6.09777407 5.79171111,6.46128025" id="Fill-4783"></path>
                </g>
            </g>
        </g>
    </g>
</svg>