<?xml version="1.0" encoding="UTF-8"?>
<svg width="29px" height="29px" viewBox="0 0 29 29" version="1.1" xmlns="http://www.w3.org/2000/svg" xmlns:xlink="http://www.w3.org/1999/xlink">
    <title>logotype_element</title>
    <desc>Created with Sketch.</desc>
    <defs></defs>
    <g id="Page-1" stroke="none" stroke-width="1" fill="none" fill-rule="evenodd">
        <g id="Inbox---Unassigned-(no-messages-selected)" transform="translate(-15.000000, -14.000000)" fill-rule="nonzero" fill="#FFFFFF">
            <g id="logotype_element" transform="translate(15.000000, 14.000000)">
                <path d="M6.08064516,3.625 L6.08064516,16.3125 C6.08064516,17.0632621 6.70889075,17.671875 7.48387097,17.671875 C8.25885118,17.671875 8.88709677,17.0632621 8.88709677,16.3125 L8.88709677,3.625 C8.88709677,2.87423792 8.25885118,2.265625 7.48387097,2.265625 C6.70889075,2.265625 6.08064516,2.87423792 6.08064516,3.625 Z" id="Line-2-Copy-8"></path>
                <path d="M17.3064516,5.4375 L17.3064516,18.125 C17.3064516,18.8757621 17.9346972,19.484375 18.7096774,19.484375 C19.4846576,19.484375 20.1129032,18.8757621 20.1129032,18.125 L20.1129032,5.4375 C20.1129032,4.68673792 19.4846576,4.078125 18.7096774,4.078125 C17.9346972,4.078125 17.3064516,4.68673792 17.3064516,5.4375 Z" id="Line-2-Copy-9"></path>
                <path d="M11.6935484,1.8125 L11.6935484,14.5 C11.6935484,15.2507621 12.321794,15.859375 13.0967742,15.859375 C13.8717544,15.859375 14.5,15.2507621 14.5,14.5 L14.5,1.8125 C14.5,1.06173792 13.8717544,0.453125 13.0967742,0.453125 C12.321794,0.453125 11.6935484,1.06173792 11.6935484,1.8125 Z" id="Line-2-Copy-10"></path>
                <path d="M26.520291,19.6189509 L14.6753403,25.1438526 C10.7185423,26.9894424 5.9665149,25.3782081 4.06138995,21.5450601 C3.54325249,20.5025575 3.27419355,19.3603725 3.27419355,18.2033241 L3.27419355,8.15625 C3.27419355,7.40548792 2.64594796,6.796875 1.87096774,6.796875 C1.09598753,6.796875 0.467741935,7.40548792 0.467741935,8.15625 L0.467741935,18.2033241 C0.467741935,19.7687425 0.831762858,21.3140517 1.53277236,22.7244963 C4.11029435,27.9105201 10.539508,30.0904253 15.8928229,27.5934509 L27.7377735,22.0685491 C28.436032,21.7428568 28.7295396,20.9304698 28.3933411,20.2540319 C28.0571425,19.577594 27.2185495,19.2932585 26.520291,19.6189509 Z" id="Triangle-3-Copy-3"></path>
            </g>
        </g>
    </g>
</svg>