<?xml version="1.0" standalone="no"?>
<!DOCTYPE svg PUBLIC "-//W3C//DTD SVG 20010904//EN"
 "http://www.w3.org/TR/2001/REC-SVG-20010904/DTD/svg10.dtd">
<svg version="1.0" xmlns="http://www.w3.org/2000/svg"
 width="1551.000000pt" height="1551.000000pt" viewBox="0 0 1551.000000 1551.000000"
 preserveAspectRatio="xMidYMid meet">
<metadata>
Created by potrace 1.11, written by Peter Selinger 2001-2013
</metadata>
<g transform="translate(0.000000,1551.000000) scale(0.100000,-0.100000)"
fill="#000000" stroke="none">
<path d="M6941 14819 c-12 -5 -36 -11 -53 -14 -16 -3 -58 -19 -93 -34 -198
-90 -330 -249 -386 -465 -18 -68 -19 -187 -16 -3361 1 -1809 5 -3301 9 -3314
36 -119 69 -189 125 -262 133 -176 328 -273 548 -273 330 1 614 240 668 562 9
52 12 888 11 3323 0 1790 -4 3270 -8 3289 -52 267 -259 484 -520 543 -73 17
-246 20 -285 6z"/>
<path d="M4249 13916 c-2 -3 -23 -7 -45 -10 -77 -12 -235 -85 -280 -130 -6 -7
-25 -23 -40 -37 -85 -71 -164 -203 -200 -329 -18 -63 -19 -181 -19 -3360 l0
-3295 23 -75 c59 -185 163 -315 332 -413 215 -123 512 -104 725 48 128 91 237
259 268 413 22 106 23 6542 1 6645 -50 239 -226 438 -454 512 -67 22 -108 29
-196 31 -61 2 -113 2 -115 0z"/>
<path d="M9633 12989 c-196 -49 -356 -180 -446 -363 -76 -152 -69 162 -70
-3461 0 -1787 3 -3271 7 -3296 13 -87 17 -104 41 -162 108 -267 366 -438 652
-430 338 8 623 266 659 594 9 83 9 6477 0 6549 -17 138 -104 309 -206 404
-170 159 -414 222 -637 165z"/>
<path d="M1545 11643 c-11 -2 -45 -8 -75 -14 -30 -7 -57 -12 -60 -12 -3 0 -29
-11 -58 -24 -224 -99 -380 -303 -409 -533 -9 -73 -8 -5314 1 -5455 4 -60 9
-126 11 -145 2 -19 7 -66 11 -105 12 -121 18 -169 39 -290 8 -44 17 -95 20
-113 45 -264 167 -683 284 -975 183 -457 435 -898 729 -1274 55 -70 111 -140
124 -154 13 -15 43 -51 68 -80 51 -62 392 -406 461 -465 25 -21 60 -52 79 -69
227 -195 524 -402 830 -578 423 -242 1036 -472 1505 -563 11 -2 43 -8 70 -14
28 -5 67 -12 89 -16 21 -3 48 -8 60 -10 11 -2 41 -7 66 -10 25 -3 52 -7 60 -9
8 -2 42 -7 75 -10 33 -3 78 -9 100 -12 105 -14 356 -26 545 -26 154 -1 366 8
447 18 15 1 60 6 98 9 62 6 280 37 360 51 345 61 762 183 1085 318 144 60 236
103 620 289 80 39 195 94 255 123 61 29 182 87 270 130 226 109 411 198 550
265 194 93 570 274 840 405 88 43 216 104 285 137 373 179 470 226 805 388 83
40 204 98 270 130 66 32 197 95 290 140 94 45 220 106 280 135 61 29 180 86
265 128 226 109 613 295 815 392 604 289 633 306 726 432 160 215 186 498 67
728 -99 191 -253 307 -483 362 -40 10 -171 11 -230 2 -87 -13 -149 -38 -382
-150 -232 -113 -400 -194 -578 -279 -171 -82 -383 -184 -580 -280 -93 -45
-206 -99 -250 -120 -44 -21 -170 -82 -280 -135 -110 -54 -240 -117 -290 -140
-49 -24 -166 -80 -260 -125 -93 -45 -215 -104 -270 -130 -55 -26 -176 -85
-270 -130 -93 -45 -224 -108 -290 -140 -66 -32 -196 -95 -290 -140 -93 -45
-206 -99 -250 -120 -44 -21 -156 -75 -250 -120 -93 -45 -233 -113 -310 -150
-77 -37 -212 -102 -300 -145 -88 -43 -214 -104 -280 -135 -219 -105 -368 -177
-530 -255 -306 -148 -380 -183 -445 -209 -36 -15 -80 -34 -98 -42 -118 -54
-560 -183 -682 -199 -8 -1 -42 -7 -75 -13 -413 -77 -945 -76 -1340 2 -31 6
-104 18 -112 18 -5 0 -18 4 -31 9 -12 5 -33 11 -46 13 -54 10 -267 69 -351 98
-375 127 -743 316 -1040 531 -364 265 -670 579 -920 942 -173 253 -323 539
-425 810 -29 77 -56 149 -61 160 -7 20 -57 185 -64 215 -2 8 -12 51 -24 95
-34 133 -74 362 -87 491 -3 33 -8 74 -11 90 -3 16 -8 911 -10 1989 -1 1078 -4
2313 -6 2745 l-2 785 -27 72 c-15 40 -35 87 -45 105 -49 89 -140 192 -210 240
-70 48 -195 100 -270 114 -35 7 -171 11 -198 7z"/>
</g>
</svg>
